<svg xmlns="http://www.w3.org/2000/svg" xmlns:xlink="http://www.w3.org/1999/xlink" width="50" height="50" version="1.1" viewBox="0 0 50 50"><title>bluemix logo copy 2</title><desc>Created with Sketch.</desc><g id="Page-1" fill="none" fill-rule="evenodd" stroke="none" stroke-width="1"><g id="bluemix-logo-copy-2" fill="#4178BE"><g id="Page-1-Copy-2" transform="translate(13.000000, 13.000000)"><polygon id="Fill-1" points="10.615 8.846 8.846 8.846 9.731 5.308 7.962 5.308 7.077 8.846 7.077 12.385 10.615 12.385"/><polygon id="Fill-2" points="15.923 8.846 14.154 8.846 15.038 5.308 13.269 5.308 12.385 8.846 12.385 12.385 15.923 12.385"/><path id="Fill-3" d="M0,-8.84615383e-05 L0,16.8076038 L0,17.6922192 L5.30769231,22.9999115 L6.19230769,22.9999115 L23,22.9999115 L23,-8.84615383e-05 L0,-8.84615383e-05 Z M1.76923077,1.76914231 L21.2307692,1.76914231 L21.2307692,21.2306808 L6.19230769,21.2306808 L6.19230769,16.8076038 L1.76923077,16.8076038 L1.76923077,1.76914231 Z"/></g></g></g></svg>